<svg xmlns="http://www.w3.org/2000/svg" version="1.1" xmlns:xlink="http://www.w3.org/1999/xlink" xmlns:svgjs="http://svgjs.dev/svgjs" width="1500" height="1687" viewBox="0 0 1500 1687"><g transform="matrix(1,0,0,1,0.000011718749760802893,0)"><svg viewBox="0 0 320 360" data-background-color="#ffffff" preserveAspectRatio="xMidYMid meet" height="1687" width="1500" xmlns="http://www.w3.org/2000/svg" xmlns:xlink="http://www.w3.org/1999/xlink"><g id="tight-bounds" transform="matrix(1,0,0,1,0.0000025000000505315256,0)"><svg viewBox="0 0 320 360" height="360" width="320"><g><svg></svg></g><g><svg viewBox="0 0 320 360" height="360" width="320"><g><path transform="translate(-19.44751,3.1739) scale(3.53591,3.53591)" d="M67.6 10.7c0.2 0 1.8 0.8 2.7 1.1-0.3 0.1-1-0.2-1.8-0.5 0.2 0 0.6 0.1 1 0.3-0.2-0.2-1.7-0.7-1.9-0.9M52.7 7.6c0.3-0.1 3.8 0.4 5.4 0.5 0.1-0.1-0.2-0.1-0.6-0.2 0.5-0.1 1.5 0.2 2.2 0.3-2.1 0.1-4.4-0.5-6.4-0.3-0.7 0-0.2-0.2-0.6-0.3M49.8 7.6c1.8 0 3.2 0 0.6 0.2-0.3-0.1-0.7-0.1-0.6-0.2M78.1 15.9c0.2 0 1 0.9 1.4 1.2-0.1 0.1-0.9-0.7-1.3-1 0.1 0.1 0 0-0.1-0.2M76.1 14.6c-0.8-0.7-1.1-0.7-1.2-1.1 0.7 0.4 1.2 0.8 1.2 1.1M63.2 8.3c0.1-0.1 0.3 0.1 0.8 0.2-0.6-0.1-0.5 0-0.3 0.2-0.7-0.1-0.9-0.2-0.7-0.4 0.4 0.2 0.5 0.1 0.2 0M34.8 9.5c0-0.1 0.4-0.3 0.7-0.4-0.3 0.2-0.2 0.3 0.3 0.1 0 0.1-0.6 0.3-1 0.5 0.2-0.1 0.4-0.4 0-0.2M65.2 7.3c-0.3 0.1-1.4-0.5-2.5-0.7-0.6-0.2 2.4 0.5 2.5 0.7M6.2 56.7c0.6 2.5 0.2 2.4 0 0M6.3 41.7c0.1-0.4 0.2-1.5 0.3-1.4-0.3 2.4-0.8 3.5-0.9 5.3 0.3-1.6-0.1 0.9-0.2 1.5 0.1 0.8 0.1-0.5 0.3-0.3 0.2 0.3-0.4 4.5-0.2 2.2-0.2 2.1 0 4.4 0.4 5-0.5 3.2 2 10.4 2.5 11.9 0.1 0.1 0-0.5 0.2-0.1 0.2 1.3 1.1 2.2 1.4 3.6 0.3 0.4 1.5 2.6 1.7 3.1 0.4 0.8 0.6 0.7 1 1.5 1.2 2.3 3.1 4.5 4.9 6.6 5.8 6.8 14.7 12.4 24.6 14.4 9.9 2.1 20.3 0.6 28.4-3.3 0.5-0.3 0.4-0.4 1-0.6 2.8-0.9 6.2-3.8 8.1-4.9 0.9-1 3.3-2.7 3.6-3.7 1.7-1.4 3.4-3.7 4.3-5.2 0.5-0.8 0.9-0.8 1.1-1.3-0.1 0 1.6-2.1 2.1-3.3-0.2 0-0.5 0.6-0.5 0 3.6-6.9 5.6-16.2 4.5-22.6 0.2 7.9-1.8 16.7-5.6 22.3-1.7 3.6-5.2 7.5-8.4 10.3-0.5 0.5-1 1.1-1.6 1.5-1.9 1.6-4 2.9-6.2 4.1-5.2 2.9-11 5.4-17.8 5.5 11.7-1 22.2-6.9 28-14.1-4.4 4.3-6.3 6-11.2 8.5-0.4 0.7-3.7 2.1-5.9 2.7 1.3-0.6 4-1.6 4.9-2.4-7.3 3.5-15.4 5.5-23 4.4 2.9 0 7 0.1 10.9-0.6 0.6-0.2 0.9-0.4 1.6-0.5 7.6-1.7 14.9-5.4 20.1-10.6-3 2.7-7.5 5.9-10.4 6.9 2.7-1.5 7.6-4.4 9.2-6.6-3.2 3.2-9.2 6.4-13 7.8-0.6 0.1 0.4-0.4-0.6 0-1.2 0.3-0.7 0.3-1 0.5-4.6 1.3-9.9 2.4-14.3 2-0.8-0.1-1.1-0.3-1.8-0.3-0.8-0.1-1.5-0.1-2.4-0.1-3.5-0.4-7.3-1.8-10.1-3-1.5-0.7-3-1.2-4.5-2.1-1.2-0.7-2.2-1.5-3.2-2.3-3.8-2.8-7-5.6-10-9.6-5.4-7.5-8.2-16.9-7.8-26.2 0.4-9.3 4.1-18.4 10-25.1-0.3 0.3 0.4-0.7 1-1.3 0 0.2-0.1 0.5 0.6-0.2 0.6-0.7-0.2-0.2 0.1-0.6 6.2-6.8 17-12.3 28.1-12.5 0.4-0.3 1.1-0.7 1.9-0.5 0 0.1-0.5 0.1-0.5 0.1 1.1-0.1 2.1-0.1 2.6 0.1 0.1-0.1-0.4-0.2 0-0.2 0.7 0.2 0.9 0 1.3 0.2-0.3 0-0.6 0-0.8 0.1 2.5 0 4.1 0.6 6.6 0.8-1.3-0.3-1.6-0.3-2.6-0.6 1.1 0.2 1.6 0.4 2.1 0.3-0.2 0-0.1-0.3 0.1-0.2 2 0.5 2.2 0.7 4.3 1.4 0.2-0.2-0.9-0.3-1.2-0.6 2 0.7 3.8 1.2 5 2-0.4-0.3-1.6-0.7-2.5-1.1-0.1 0.1 0.3 0.2 0.4 0.4-1-0.5-2.4-1-3.8-1.2 1.2 0.3 2 0.7 2.5 0.9-1.1-0.2-2.5-0.9-4.1-1.2 2.6 0.8 7.5 2.6 10.5 4.2-1.1-0.7-2.4-1.2-3.1-1.6 0.6 0.1 1.3 0.5 1.3 0.3 0.7 0.3 1.6 1 2.1 1.1-0.9-0.6-2.7-1.5-3.3-1.8 7.5 3.4 14.2 9.1 18.5 16.4 0.4 0.7 1 2.3 1.5 2.5-0.1-0.5-0.5-0.8-0.9-1.6 0.2 0 0.2-0.3 0-0.6-0.4-0.5 0 0.4-0.4-0.1-1.8-3.3-4-6.2-7.4-9.4 1.9 1.8 0.5 0.5 0.1-0.1 2.6 2.3 5.6 6.2 6.9 8.2-0.2-0.3-0.3-0.5-0.2-0.5 2.4 4.1 3.9 7.8 5.4 13.1 0.1 0.1 0-0.4 0.2-0.1 1 4.2 1.3 7.7 1.2 10.9 0.8-5.4-1-13.8-4.2-20.4-0.4-0.8-0.4-0.2-0.8-1.1 0-0.3-0.3-0.9-0.5-1.3-4-6.6-8.9-11.3-14.7-15 0.4 0.2 1.2 0.8 1.2 0.7-10.8-7.1-23.3-8.1-33.6-5.9-0.7 0.3-1 0.6-1.8 1 1.5-0.5 2.4-0.6 3.8-0.9 0.3-0.3-1.3 0.1-0.6-0.2 0.1 0.1 1.4-0.2 1.7-0.1 0 0.1-0.4 0.2-0.5 0.3 3.3-0.7 6.7-0.8 9.6-0.6-1.7 0.1-4.8-0.2-5.8 0.3 1-0.1 2.4-0.2 3.3-0.1-1.2 0-3.4 0.1-4.4 0.2-0.1-0.1 1.6-0.3 0.5-0.3-0.5 0.1-1.3 0.1-1.6 0.4-8.6 0.8-17 5.3-22.9 10.6-1.2 1-2.6 2.1-3.5 3.2-2.2 2.5-3.6 5-5.2 7.2 1-2.1 3.2-5.3 5.8-8 2.6-2.7 5.4-5 6.9-6.2 0 0.4 2.4-1.5 3.3-2.1-0.6 0.5 0.4-0.2 0.6-0.1 3.2-1.9 5.8-2.6 8.7-3.7-0.7 0.2-1.3 0.4-1.4 0.3 0.7-0.2 1.1-0.4 1-0.5-2.8 0.8-7.2 2.7-10.7 4.8 6.3-4.3 14.3-6.9 22.2-7 7.9-0.2 15.6 1.8 21.7 5 4.1 1.8 8 5.1 11.1 8.3 0.9 0.8 0.2-0.2 1.5 1.2-0.4-0.2-0.7-0.4-0.2 0.2 0.8 0.9-0.2-0.7 1.1 0.9-0.1 0-0.5-0.5-0.5-0.3 3.5 3.1 6.2 8.7 7.8 12.4-0.4-1.5-1.4-3.6-2.2-5.1 2.4 4.4 3.2 7 4.2 10.9 0.4 0.3-0.2-1.4 0.2-0.6 0.1 0.6 0.2 2.5 0.6 2.8-0.3-1.9-0.8-4.2-1.2-4.6 0.3 0.2-0.5-2.3-1-2.9-0.2-1.6-1.6-4.4-2.8-6.5-4.3-8.4-12-15.3-20.6-19.1 0-0.2-0.5-0.4-0.7-0.6-8.5-3.6-18.7-4.6-28.5-2.3-9.9 2.4-19.2 8.1-25.8 16.3 0.3-1 2.8-2.9 2.9-3.7-2.9 3.1-6 7.2-8.1 11.6-2.2 4.4-3.4 8.9-3.9 12.2" fill="#437fc7" fill-rule="nonzero" stroke="none" stroke-width="1" stroke-linecap="butt" stroke-linejoin="miter" stroke-miterlimit="10" stroke-dasharray="" stroke-dashoffset="0" font-family="none" font-weight="none" font-size="none" text-anchor="none" style="mix-blend-mode: normal" data-fill-palette-color="tertiary"></path></g><g transform="matrix(1,0,0,1,48,97.53994178348005)"><svg viewBox="0 0 224 164.9201164330399" height="164.9201164330399" width="224"><g><svg viewBox="0 0 224 164.9201164330399" height="164.9201164330399" width="224"><g><svg viewBox="0 0 224 164.9201164330399" height="164.9201164330399" width="224"><g transform="matrix(1,0,0,1,0,93.15693549066822)"><svg viewBox="0 0 224 71.76318094237169" height="71.76318094237169" width="224"><g id="textblocktransform"><svg viewBox="0 0 224 71.76318094237169" height="71.76318094237169" width="224" id="textblock"><g><svg viewBox="0 0 224 71.76318094237169" height="71.76318094237169" width="224"><g transform="matrix(1,0,0,1,0,0)"><svg width="224" viewBox="4.6 -37.5 147.31903137792 47.2" height="71.76318094237169" data-palette-color="#437fc7"><path d="M4.6 0L4.6-35 29.6-35 29.6-29.95 10.5-29.95 10.5-20.1 27.6-20.1 27.6-15.1 10.5-15.1 10.5-5.05 30.2-5.05 30.2 0 4.6 0ZM54.3-24.15L52.2-20.1Q50.45-21.15 48.37-21.78 46.3-22.4 44.55-22.4L44.55-22.4Q42.85-22.4 41.75-21.75 40.65-21.1 40.65-19.6L40.65-19.6Q40.65-18.35 41.67-17.63 42.7-16.9 44.3-16.4 45.9-15.9 47.7-15.35 49.5-14.8 51.12-13.93 52.75-13.05 53.75-11.55 54.75-10.05 54.75-7.6L54.75-7.6Q54.75-4.9 53.32-3.18 51.9-1.45 49.57-0.63 47.25 0.2 44.55 0.2L44.55 0.2Q41.65 0.2 38.75-0.75 35.85-1.7 33.85-3.5L33.85-3.5 35.9-7.4Q37.65-5.85 40.15-4.98 42.65-4.1 44.8-4.1L44.8-4.1Q46.05-4.1 47.02-4.42 48-4.75 48.57-5.4 49.15-6.05 49.15-7.1L49.15-7.1Q49.15-8.5 48.15-9.3 47.15-10.1 45.55-10.63 43.95-11.15 42.15-11.68 40.35-12.2 38.77-13.05 37.2-13.9 36.2-15.35 35.2-16.8 35.2-19.2L35.2-19.2Q35.2-21.9 36.6-23.58 38-25.25 40.22-26.03 42.45-26.8 45-26.8L45-26.8Q47.5-26.8 50-26.1 52.5-25.4 54.3-24.15L54.3-24.15ZM75.85-26.75L75.85-26.75Q79.65-26.75 82.5-25.05 85.35-23.35 86.95-20.3 88.55-17.25 88.55-13.2L88.55-13.2Q88.55-9.25 86.97-6.23 85.4-3.2 82.57-1.5 79.75 0.2 75.95 0.2L75.95 0.2Q72.3 0.2 69.72-1.4 67.15-3 65.8-6.03 64.45-9.05 64.45-13.2L64.45-13.2Q64.45-17.5 65.8-20.53 67.15-23.55 69.72-25.15 72.3-26.75 75.85-26.75ZM74.65-22.2L74.65-22.2Q72.3-22.2 70.45-21.05 68.6-19.9 67.57-17.93 66.55-15.95 66.55-13.35L66.55-13.35Q66.55-10.75 67.57-8.72 68.6-6.7 70.45-5.58 72.3-4.45 74.65-4.45L74.65-4.45Q77.05-4.45 78.87-5.6 80.7-6.75 81.72-8.75 82.75-10.75 82.75-13.35L82.75-13.35Q82.75-15.9 81.72-17.9 80.7-19.9 78.87-21.05 77.05-22.2 74.65-22.2ZM60.8 9.7L60.8-26.55 66.55-26.55 66.55 9.7 60.8 9.7ZM94.54 0L94.54-26.55 100.24-26.55 100.24 0 94.54 0ZM97.39-37.5L97.39-37.5Q98.84-37.5 99.79-36.55 100.74-35.6 100.74-34.15L100.74-34.15Q100.74-32.75 99.79-31.78 98.84-30.8 97.39-30.8L97.39-30.8Q95.99-30.8 95.02-31.78 94.04-32.75 94.04-34.15L94.04-34.15Q94.04-35.6 95.02-36.55 95.99-37.5 97.39-37.5ZM123.69-26.75L123.69-21.55Q120.84-21.7 118.77-20.58 116.69-19.45 115.57-17.45 114.44-15.45 114.44-12.85L114.44-12.85 112.84-13.05Q112.84-17.5 114.14-20.55 115.44-23.6 117.89-25.18 120.34-26.75 123.69-26.75L123.69-26.75ZM108.74 0L108.74-26.55 114.49-26.55 114.49 0 108.74 0ZM130.59-15.2L146.84-15.2Q146.74-17.45 145.81-19.03 144.89-20.6 143.24-21.48 141.59-22.35 139.44-22.35L139.44-22.35Q137.04-22.35 135.26-21.25 133.49-20.15 132.49-18.18 131.49-16.2 131.49-13.55L131.49-13.55Q131.49-10.7 132.56-8.6 133.64-6.5 135.56-5.35 137.49-4.2 139.99-4.2L139.99-4.2Q144.44-4.2 147.49-7.35L147.49-7.35 150.54-4.3Q148.59-2.15 145.79-0.98 142.99 0.2 139.54 0.2L139.54 0.2Q135.44 0.2 132.39-1.5 129.34-3.2 127.64-6.23 125.94-9.25 125.94-13.25L125.94-13.25Q125.94-17.25 127.64-20.28 129.34-23.3 132.39-25 135.44-26.7 139.39-26.75L139.39-26.75Q144.09-26.75 146.94-24.83 149.79-22.9 150.99-19.4 152.19-15.9 151.84-11.1L151.84-11.1 130.59-11.1 130.59-15.2Z" opacity="1" transform="matrix(1,0,0,1,0,0)" fill="#437fc7" class="wordmark-text-0" data-fill-palette-color="primary" id="text-0"></path></svg></g></svg></g></svg></g></svg></g><g transform="matrix(1,0,0,1,42.784000000000006,0)"><svg viewBox="0 0 138.432 76.21537078651687" height="76.21537078651687" width="138.432"><g><svg xmlns="http://www.w3.org/2000/svg" xmlns:xlink="http://www.w3.org/1999/xlink" version="1.1" x="0" y="0" viewBox="1.39 20.99 87.22 48.02000000000001" enable-background="new 0 0 90 90" xml:space="preserve" height="76.21537078651687" width="138.432" class="icon-icon-0" data-fill-palette-color="accent" id="icon-0"><rect x="1.39" y="45.49" width="23.52" height="23.52" fill="#6daffe" data-fill-palette-color="accent"></rect><polygon points="43.294,33.24 25.263,44.51 2.604,44.51 20.638,33.24 " fill="#6daffe" data-fill-palette-color="accent"></polygon><polygon points="64.108,44.727 25.89,68.617 25.89,45.273 64.108,21.382 " fill="#6daffe" data-fill-palette-color="accent"></polygon><polygon points="64.728,45.49 87.394,45.49 69.36,56.76 46.704,56.76 " fill="#6daffe" data-fill-palette-color="accent"></polygon><rect x="65.089" y="20.99" width="23.521" height="23.52" fill="#6daffe" data-fill-palette-color="accent"></rect></svg></g></svg></g><g></g></svg></g></svg></g></svg></g></svg></g><defs></defs></svg><rect width="320" height="360" fill="none" stroke="none" visibility="hidden"></rect></g></svg></g></svg>